<svg height="978pt" viewBox="-179 1 978 978.644" width="978pt" xmlns="http://www.w3.org/2000/svg"><path d="m473.570312 473.183594v-65.265625h-326.332031v65.265625h-65.269531v-65.265625h-32.632812c-18.019532 0-32.632813 14.609375-32.632813 32.632812v489.5c0 18.023438 14.613281 32.632813 32.632813 32.632813h522.132812c18.023438 0 32.636719-14.609375 32.636719-32.632813v-489.5c0-18.023437-14.613281-32.632812-32.636719-32.632812h-32.632812v65.265625zm32.632813 244.75c0 36.046875-29.21875 65.265625-65.265625 65.265625h-261.066406c-36.046875 0-65.265625-29.21875-65.265625-65.265625v-97.898438c0-18.023437 14.609375-32.632812 32.632812-32.632812h326.332031c18.023438 0 32.632813 14.609375 32.632813 32.632812zm0 0" fill="#754c29"/><path d="m147.238281 358.96875h326.332031v48.949219h-326.332031zm0 0" fill="#ffeb99"/><path d="m538.835938 81.582031c0-18.019531-14.609376-32.632812-32.632813-32.632812-18.019531 0-32.632813 14.613281-32.632813 32.632812v32.632813h65.269532v-32.632813zm0 0" fill="#ffeb99"/><path d="m571.46875 114.214844h-522.132812c-18.019532 0-32.632813 14.613281-32.632813 32.632812v179.484375c0 18.023438 14.613281 32.632813 32.632813 32.632813h32.632812v-81.582032h65.269531v81.582032h326.332031v-81.582032h65.265626v81.582032h32.632812c18.023438 0 32.632812-14.609375 32.632812-32.632813v-179.484375c.003907-18.019531-14.605468-32.632812-32.632812-32.632812zm0 0" fill="#754c29"/><path d="m147.238281 81.582031c0-18.019531-14.613281-32.632812-32.632812-32.632812-18.023438 0-32.632813 14.613281-32.632813 32.632812v32.632813h65.265625zm0 0" fill="#ffeb99"/><path d="m408.304688 48.949219c0-18.023438-14.609376-32.632813-32.632813-32.632813h-130.535156c-18.023438 0-32.632813 14.609375-32.632813 32.632813v65.265625h195.800782zm0 0" fill="#fff"/><g fill="#ffeb99"><path d="m473.570312 587.398438h-326.332031c-18.023437 0-32.632812 14.613281-32.632812 32.632812v97.902344c0 36.046875 29.21875 65.265625 65.265625 65.265625h261.066406c36.046875 0 65.265625-29.21875 65.265625-65.265625v-97.902344c0-18.019531-14.609375-32.632812-32.632813-32.632812zm0 0"/><path d="m147.238281 473.183594v-195.800782h-65.265625v195.800782zm0 0"/><path d="m473.570312 277.382812v195.800782h65.265626v-195.800782zm0 0"/></g><path d="m571.46875 375.285156c27.035156 0 48.953125-21.917968 48.953125-48.949218v-179.488282c0-27.03125-21.917969-48.949218-48.953125-48.949218h-16.316406v-16.316407c0-27.03125-21.914063-48.949219-48.949219-48.949219-27.03125 0-48.949219 21.917969-48.949219 48.949219v16.320313h-32.632812v-48.953125c0-27.035157-21.914063-48.949219-48.949219-48.949219h-130.535156c-27.03125 0-48.949219 21.914062-48.949219 48.949219v48.949219h-32.632812v-16.316407c0-27.03125-21.914063-48.949219-48.949219-48.949219-27.035157 0-48.949219 21.917969-48.949219 48.949219v16.320313h-16.320312c-27.035157 0-48.949219 21.914062-48.949219 48.949218v179.484376c0 27.03125 21.917969 48.949218 48.949219 48.949218h16.316406v16.316406h-16.316406c-27.035157 0-48.949219 21.914063-48.949219 48.949219v489.5c0 27.035157 21.917969 48.949219 48.949219 48.949219h522.132812c27.035156 0 48.953125-21.914062 48.953125-48.949219v-489.5c0-27.035156-21.917969-48.949219-48.953125-48.949219h-16.316406v-16.320312h16.316406zm-81.582031-293.703125c0-9.007812 7.308593-16.316406 16.316406-16.316406 9.011719 0 16.320313 7.308594 16.320313 16.316406v16.320313h-32.636719zm-261.066407-32.632812c0-9.011719 7.304688-16.316407 16.316407-16.316407h130.535156c9.011719 0 16.316406 7.304688 16.316406 16.316407v48.949219h-163.167969zm-130.53125 32.632812c0-9.007812 7.304688-16.316406 16.316407-16.316406s16.316406 7.308594 16.316406 16.316406v16.320313h-32.632813zm473.179688 342.652344c9.011719 0 16.320312 7.304687 16.320312 16.316406v489.5c0 9.011719-7.308593 16.316407-16.320312 16.316407h-522.132812c-9.011719 0-16.316407-7.304688-16.316407-16.316407v-489.5c0-9.011719 7.304688-16.316406 16.316407-16.316406h16.316406v48.949219c0 9.011718 7.308594 16.316406 16.320312 16.316406h65.265625c9.011719 0 16.316407-7.304688 16.316407-16.316406v-48.949219h293.699218v48.949219c0 9.011718 7.308594 16.316406 16.316406 16.316406h65.269532c9.011718 0 16.316406-7.304688 16.316406-16.316406v-48.949219zm-473.179688 32.632813v-163.167969h32.632813v163.167969zm65.265626-65.265626v-16.320312h293.699218v16.320312zm326.332031 65.265626v-163.167969h32.632812v163.167969zm48.949219-195.800782h-65.265626c-9.011718 0-16.316406 7.304688-16.316406 16.316406v65.269532h-293.699218v-65.269532c0-9.011718-7.304688-16.316406-16.316407-16.316406h-65.269531c-9.011719 0-16.316406 7.304688-16.316406 16.316406v65.269532h-16.316406c-9.011719 0-16.316407-7.308594-16.316407-16.316406v-179.488282c0-9.007812 7.304688-16.316406 16.316407-16.316406h522.132812c9.011719 0 16.320312 7.308594 16.320312 16.316406v179.484375c0 9.011719-7.308593 16.316407-16.320312 16.316407h-16.316406v-65.265626c0-9.011718-7.304688-16.316406-16.316406-16.316406zm0 0" fill="#231f20"/><path d="m473.570312 571.082031h-326.332031c-27.035156 0-48.949219 21.917969-48.949219 48.949219v97.902344c.050782 45.035156 36.546876 81.527344 81.582032 81.582031h261.066406c45.035156-.054687 81.53125-36.546875 81.585938-81.582031v-97.902344c-.003907-27.03125-21.917969-48.949219-48.953126-48.949219zm16.316407 146.851563c0 27.035156-21.914063 48.949218-48.949219 48.949218h-261.066406c-27.035156 0-48.949219-21.914062-48.949219-48.949218v-97.898438c0-9.011718 7.304687-16.316406 16.316406-16.316406h326.332031c9.011719 0 16.316407 7.304688 16.316407 16.316406zm0 0" fill="#231f20"/></svg>