<svg height="512.00003pt" viewBox="0 0 512.00003 512.00003" width="512.00003pt" xmlns="http://www.w3.org/2000/svg"><path d="m494.933594 324.265625h-59.734375v-187.730469c-.058594-51.816406-42.050781-93.808594-93.867188-93.867187h-42.664062v-25.601563c0-9.425781-7.640625-17.066406-17.066407-17.066406h-51.203124c-9.425782 0-17.066407 7.640625-17.066407 17.066406v25.601563h-42.664062c-51.816407.058593-93.808594 42.050781-93.867188 93.867187v187.730469h-59.734375c-9.425781 0-17.066406 7.640625-17.066406 17.066406v51.203125c.0195312 6.066406 3.269531 11.667969 8.535156 14.691406v70.640626c0 18.851562 15.28125 34.132812 34.132813 34.132812h426.664062c18.851563 0 34.132813-15.28125 34.132813-34.132812v-70.640626c5.265625-3.023437 8.515625-8.625 8.535156-14.691406v-51.203125c0-9.425781-7.640625-17.066406-17.066406-17.066406zm0 17.066406v51.203125h-59.734375v-51.203125zm-264.535156-324.265625h51.203124v25.601563h-51.203124zm-59.730469 42.667969h170.664062c42.398438.046875 76.753907 34.402344 76.800781 76.800781v136.53125h-17.066406v-95.660156c-.078125-13.894531-8.367187-26.429688-21.121094-31.945312l-31.453124-14.046876-16.289063-31.660156c-4.710937-8.871094-13.933594-14.421875-23.980469-14.421875h-50.089844c-10.046874 0-19.269531 5.558594-23.96875 14.441407l-15.992187 30.589843-13.371094 1.707031v-12.605468c0-9.425782-7.640625-17.066406-17.066406-17.066406h-25.601563c-9.425781 0-17.066406 7.640624-17.066406 17.066406v20.378906c-19.4375 3.0625-33.847656 19.679688-34.132812 39.355469v93.867187h-17.066406v-136.53125c.046874-42.398437 34.402343-76.753906 76.800781-76.800781zm155.9375 213.332031c21.375-18.742187 28.898437-48.765625 18.886719-75.375-10.011719-26.605468-35.464844-44.222656-63.890626-44.222656-28.429687 0-53.882812 17.617188-63.894531 44.222656-10.011719 26.609375-2.488281 56.632813 18.886719 75.375h-40.328125v-76.800781c0-14.136719-11.460937-25.597656-25.597656-25.597656h-40.960938c4.285157-8.59375 12.804688-14.269531 22.382813-14.917969l68.335937-8.464844c5.683594-.804687 10.632813-4.296875 13.292969-9.386718l15.625-30.292969c1.730469-3.238281 5.117188-5.242188 8.789062-5.207031h50.089844c3.667969-.035157 7.058594 1.960937 8.800782 5.191406l16.210937 31.570312c1.777344 3.664063 4.84375 6.546875 8.609375 8.089844l31.191406 13.84375c6.566406 2.78125 10.867188 9.183594 10.964844 16.3125v95.660156zm-96.207031-51.199218c0-28.277344 22.925781-51.199219 51.203124-51.199219 28.277344 0 51.199219 22.921875 51.199219 51.199219 0 28.277343-22.921875 51.199218-51.199219 51.199218-28.265624-.027344-51.171874-22.933594-51.203124-51.199218zm-102.398438 51.199218v-85.332031h42.667969c4.710937 0 8.53125 3.820313 8.53125 8.53125v76.800781zm59.734375-138.929687-25.601563 3.171875v-17.84375h25.601563zm-170.667969 207.195312h59.734375v51.203125h-59.734375zm8.535156 136.535157v-68.265626h51.199219v85.332032h-34.132812c-9.425781 0-17.066407-7.640625-17.066407-17.066406zm68.265626-76.800782v-110.933594h324.265624v204.800782h-324.265624zm392.53125 76.800782c0 9.425781-7.640626 17.066406-17.066407 17.066406h-34.132812v-85.332032h51.199219zm0 0"/><path d="m298.667969 119.464844h-34.132813c-4.714844 0-8.535156 3.824218-8.535156 8.535156s3.820312 8.535156 8.535156 8.535156h34.132813c4.710937 0 8.53125-3.824218 8.53125-8.535156s-3.820313-8.535156-8.53125-8.535156zm0 0"/><path d="m281.601562 187.734375c-4.714843 0-8.535156 3.820313-8.535156 8.53125 0 4.714844 3.820313 8.535156 8.535156 8.535156 9.425782 0 17.066407 7.640625 17.066407 17.066407 0 4.710937 3.820312 8.53125 8.53125 8.53125 4.714843 0 8.535156-3.820313 8.535156-8.53125 0-18.851563-15.28125-34.132813-34.132813-34.132813zm0 0"/><path d="m281.601562 238.933594c-9.425781 0-17.066406-7.640625-17.066406-17.066406 0-4.714844-3.824218-8.535157-8.535156-8.535157s-8.535156 3.820313-8.535156 8.535157c0 18.851562 15.285156 34.132812 34.136718 34.132812 4.710938 0 8.53125-3.820312 8.53125-8.535156 0-4.710938-3.820312-8.53125-8.53125-8.53125zm0 0"/><path d="m159.660156 207.273438-1.28125-1.023438c-.476562-.324219-.992187-.582031-1.535156-.765625-.484375-.25-1.003906-.421875-1.535156-.515625-1.664063-.351562-3.394532-.171875-4.953125.515625-2.140625.773437-3.832031 2.460937-4.605469 4.605469-1.523438 3.574218-.441406 7.722656 2.632812 10.097656 3.074219 2.375 7.363282 2.375 10.433594 0 3.074219-2.375 4.15625-6.523438 2.632813-10.097656-.410157-1.042969-1.019531-2-1.789063-2.816406zm0 0"/><path d="m159.660156 241.40625-1.28125-1.023438c-.476562-.320312-.992187-.582031-1.535156-.765624-.484375-.242188-1.003906-.417969-1.535156-.511719-1.664063-.351563-3.394532-.171875-4.953125.511719-2.140625.773437-3.832031 2.464843-4.605469 4.605468-1.523438 3.574219-.441406 7.722656 2.632812 10.097656 3.074219 2.375 7.363282 2.375 10.433594 0 3.074219-2.375 4.15625-6.523437 2.632813-10.097656-.414063-1.042968-1.019531-1.996094-1.789063-2.816406zm0 0"/><path d="m226.132812 332.800781h-93.867187c-7.066406 0-12.800781 5.730469-12.800781 12.800781v38.398438c.019531 6.070312 3.273437 11.671875 8.535156 14.695312v45.039063c0 18.851563 15.28125 34.132813 34.132812 34.132813h34.132813c18.851563 0 34.132813-15.28125 34.132813-34.132813v-45.039063c5.265624-3.023437 8.515624-8.625 8.535156-14.695312v-38.398438c0-7.070312-5.730469-12.800781-12.800782-12.800781zm-89.597656 17.066407h85.332032v34.132812h-85.332032zm76.796875 93.867187c0 9.425781-7.640625 17.066406-17.066406 17.066406h-34.132813c-9.425781 0-17.066406-7.640625-17.066406-17.066406v-42.667969h68.265625zm0 0"/><path d="m379.734375 332.800781h-93.867187c-7.070313 0-12.800782 5.730469-12.800782 12.800781v38.398438c.019532 6.070312 3.269532 11.671875 8.535156 14.695312v45.039063c0 18.851563 15.28125 34.132813 34.132813 34.132813h34.132813c18.851562 0 34.132812-15.28125 34.132812-34.132813v-45.039063c5.261719-3.023437 8.515625-8.625 8.535156-14.695312v-38.398438c0-7.070312-5.734375-12.800781-12.800781-12.800781zm-89.601563 17.066407h85.332032v34.132812h-85.332032zm76.800782 93.867187c0 9.425781-7.640625 17.066406-17.066406 17.066406h-34.132813c-9.425781 0-17.066406-7.640625-17.066406-17.066406v-42.667969h68.265625zm0 0"/></svg>