<svg xmlns="http://www.w3.org/2000/svg" height="599pt" version="1.1" viewBox="-90 0 599 599.02971" width="599pt">
<g id="surface1">
<path d="M 329.480469 419.320312 C 323.96875 419.320312 319.496094 423.792969 319.496094 429.304688 L 319.496094 569.078125 C 319.496094 574.589844 315.027344 579.0625 309.511719 579.0625 L 29.964844 579.0625 C 24.453125 579.0625 19.984375 574.589844 19.984375 569.078125 L 19.984375 29.953125 C 19.984375 24.4375 24.453125 19.96875 29.964844 19.96875 L 73.304688 19.96875 L 83.550781 43.871094 C 85.121094 47.539062 88.734375 49.917969 92.726562 49.917969 L 246.753906 49.917969 C 250.746094 49.917969 254.359375 47.539062 255.929688 43.871094 L 266.175781 19.96875 L 309.511719 19.96875 C 315.027344 19.96875 319.496094 24.4375 319.496094 29.953125 L 319.496094 169.726562 C 319.496094 175.238281 323.96875 179.707031 329.480469 179.707031 C 334.996094 179.707031 339.464844 175.238281 339.464844 169.726562 L 339.464844 29.953125 C 339.464844 13.410156 326.054688 0 309.511719 0 L 29.964844 0 C 13.425781 0 0.015625 13.410156 0.015625 29.953125 L 0.015625 569.078125 C 0.015625 585.617188 13.425781 599.03125 29.964844 599.03125 L 309.511719 599.03125 C 326.054688 599.03125 339.464844 585.617188 339.464844 569.078125 L 339.464844 429.304688 C 339.464844 423.792969 334.996094 419.320312 329.480469 419.320312 Z M 244.449219 19.96875 L 240.175781 29.953125 L 99.300781 29.953125 L 95.03125 19.96875 Z M 244.449219 19.96875 " style=" stroke:none;fill-rule:nonzero;fill:rgb(0%,0%,0%);fill-opacity:1;" />
<path d="M 259.59375 109.820312 L 279.5625 109.820312 L 279.5625 129.789062 L 259.59375 129.789062 Z M 259.59375 109.820312 " style=" stroke:none;fill-rule:nonzero;fill:rgb(0%,0%,0%);fill-opacity:1;" />
<path d="M 229.644531 109.820312 L 249.609375 109.820312 L 249.609375 129.789062 L 229.644531 129.789062 Z M 229.644531 109.820312 " style=" stroke:none;fill-rule:nonzero;fill:rgb(0%,0%,0%);fill-opacity:1;" />
<path d="M 199.691406 109.820312 L 219.660156 109.820312 L 219.660156 129.789062 L 199.691406 129.789062 Z M 199.691406 109.820312 " style=" stroke:none;fill-rule:nonzero;fill:rgb(0%,0%,0%);fill-opacity:1;" />
<path d="M 189.707031 109.820312 L 84.019531 109.820312 L 116.894531 76.945312 L 102.777344 62.828125 L 52.859375 112.746094 L 52.917969 112.804688 C 50.992188 114.632812 49.894531 117.167969 49.886719 119.820312 C 49.875 122.476562 50.949219 125.023438 52.859375 126.863281 L 102.777344 176.785156 L 116.894531 162.667969 L 84.019531 129.789062 L 189.707031 129.789062 Z M 189.707031 109.820312 " style=" stroke:none;fill-rule:nonzero;fill:rgb(0%,0%,0%);fill-opacity:1;" />
<path d="M 59.917969 469.238281 L 79.886719 469.238281 L 79.886719 489.207031 L 59.917969 489.207031 Z M 59.917969 469.238281 " style=" stroke:none;fill-rule:nonzero;fill:rgb(0%,0%,0%);fill-opacity:1;" />
<path d="M 89.871094 469.238281 L 109.835938 469.238281 L 109.835938 489.207031 L 89.871094 489.207031 Z M 89.871094 469.238281 " style=" stroke:none;fill-rule:nonzero;fill:rgb(0%,0%,0%);fill-opacity:1;" />
<path d="M 119.820312 469.238281 L 139.789062 469.238281 L 139.789062 489.207031 L 119.820312 489.207031 Z M 119.820312 469.238281 " style=" stroke:none;fill-rule:nonzero;fill:rgb(0%,0%,0%);fill-opacity:1;" />
<path d="M 149.773438 489.207031 L 255.460938 489.207031 L 222.585938 522.085938 L 236.703125 536.203125 L 286.621094 486.28125 C 288.527344 484.441406 289.597656 481.894531 289.585938 479.242188 C 289.570312 476.589844 288.472656 474.0625 286.550781 472.234375 L 286.609375 472.175781 L 236.691406 422.253906 L 222.574219 436.375 L 255.460938 469.238281 L 149.773438 469.238281 Z M 149.773438 489.207031 " style=" stroke:none;fill-rule:nonzero;fill:rgb(0%,0%,0%);fill-opacity:1;" />
<path d="M 69.902344 559.09375 C 69.902344 564.609375 74.371094 569.078125 79.886719 569.078125 L 259.59375 569.078125 C 265.109375 569.078125 269.578125 564.609375 269.578125 559.09375 C 269.578125 553.582031 265.109375 549.109375 259.59375 549.109375 L 79.886719 549.109375 C 74.371094 549.109375 69.902344 553.582031 69.902344 559.09375 Z M 69.902344 559.09375 " style=" stroke:none;fill-rule:nonzero;fill:rgb(0%,0%,0%);fill-opacity:1;" />
<path d="M 389.382812 189.691406 L 69.902344 189.691406 C 53.359375 189.691406 39.949219 203.105469 39.949219 219.644531 L 39.949219 379.386719 C 39.949219 395.925781 53.359375 409.335938 69.902344 409.335938 L 389.382812 409.335938 C 405.925781 409.335938 419.335938 395.925781 419.335938 379.386719 L 419.335938 219.644531 C 419.335938 203.105469 405.925781 189.691406 389.382812 189.691406 Z M 69.902344 209.660156 L 389.382812 209.660156 C 394.898438 209.660156 399.367188 214.128906 399.367188 219.644531 L 399.367188 229.628906 L 59.917969 229.628906 L 59.917969 219.644531 C 59.917969 214.128906 64.386719 209.660156 69.902344 209.660156 Z M 389.382812 389.371094 L 69.902344 389.371094 C 64.386719 389.371094 59.917969 384.898438 59.917969 379.386719 L 59.917969 269.5625 L 399.367188 269.5625 L 399.367188 379.386719 C 399.367188 384.898438 394.898438 389.371094 389.382812 389.371094 Z M 389.382812 389.371094 " style=" stroke:none;fill-rule:nonzero;fill:rgb(0%,0%,0%);fill-opacity:1;" />
<path d="M 139.789062 309.5 C 134.484375 309.527344 129.292969 310.980469 124.746094 313.699219 C 120.234375 311 115.09375 309.546875 109.835938 309.5 C 93.296875 309.5 79.886719 322.910156 79.886719 339.449219 C 79.886719 355.992188 93.296875 369.402344 109.835938 369.402344 C 115.09375 369.351562 120.234375 367.898438 124.746094 365.199219 C 129.292969 367.917969 134.484375 369.371094 139.789062 369.402344 C 156.328125 369.402344 169.738281 355.992188 169.738281 339.449219 C 169.738281 322.910156 156.328125 309.5 139.789062 309.5 Z M 99.851562 339.449219 C 99.851562 333.9375 104.324219 329.464844 109.835938 329.464844 C 110.421875 329.539062 111.003906 329.667969 111.5625 329.847656 C 109.261719 336.042969 109.261719 342.859375 111.5625 349.054688 C 111.003906 349.234375 110.421875 349.359375 109.835938 349.433594 C 104.324219 349.433594 99.851562 344.964844 99.851562 339.449219 Z M 139.789062 349.433594 C 134.273438 349.433594 129.804688 344.964844 129.804688 339.449219 C 129.804688 333.9375 134.273438 329.464844 139.789062 329.464844 C 145.300781 329.464844 149.773438 333.9375 149.773438 339.449219 C 149.773438 344.964844 145.300781 349.433594 139.789062 349.433594 Z M 139.789062 349.433594 " style=" stroke:none;fill-rule:nonzero;fill:rgb(0%,0%,0%);fill-opacity:1;" />
<path d="M 199.691406 309.5 L 259.59375 309.5 L 259.59375 329.464844 L 199.691406 329.464844 Z M 199.691406 309.5 " style=" stroke:none;fill-rule:nonzero;fill:rgb(0%,0%,0%);fill-opacity:1;" />
<path d="M 269.578125 309.5 L 329.480469 309.5 L 329.480469 329.464844 L 269.578125 329.464844 Z M 269.578125 309.5 " style=" stroke:none;fill-rule:nonzero;fill:rgb(0%,0%,0%);fill-opacity:1;" />
<path d="M 339.464844 309.5 L 379.398438 309.5 L 379.398438 329.464844 L 339.464844 329.464844 Z M 339.464844 309.5 " style=" stroke:none;fill-rule:nonzero;fill:rgb(0%,0%,0%);fill-opacity:1;" />
<path d="M 199.691406 349.433594 L 279.5625 349.433594 L 279.5625 369.402344 L 199.691406 369.402344 Z M 199.691406 349.433594 " style=" stroke:none;fill-rule:nonzero;fill:rgb(0%,0%,0%);fill-opacity:1;" />
<path d="M 289.546875 349.433594 L 379.398438 349.433594 L 379.398438 369.402344 L 289.546875 369.402344 Z M 289.546875 349.433594 " style=" stroke:none;fill-rule:nonzero;fill:rgb(0%,0%,0%);fill-opacity:1;" />
</g>
</svg>